<svg width="1200" height="400" viewBox="0 0 1200 400" fill="none" xmlns="http://www.w3.org/2000/svg">
  <rect width="1200" height="400" fill="#0a0a0c"/>
  
  <path d="M0 100H1200M0 200H1200M0 300H1200M100 0V400M200 0V400M300 0V400M400 0V400M500 0V400M600 0V400M700 0V400M800 0V400M900 0V400M1000 0V400M1100 0V400" stroke="#1e1e24" stroke-width="1"/>
  
  <circle cx="1000" cy="100" r="150" fill="url(#paint0_radial)" fill-opacity="0.2"/>
  <circle cx="200" cy="300" r="200" fill="url(#paint1_radial)" fill-opacity="0.15"/>

  <rect x="420" y="140" width="100" height="100" rx="24" fill="url(#paint2_linear)" />
  <text x="470" y="208" text-anchor="middle" fill="white" style="font-family: Arial, sans-serif; font-weight: 900; font-size: 55px;">X</text>

  <text x="540" y="195" style="font-family: 'Segoe UI', Roboto, Helvetica, Arial, sans-serif; font-weight: 900; font-size: 65px; text-transform: uppercase; letter-spacing: -3px;" fill="white">
    MARKET<tspan fill="#6366f1">BASE</tspan><tspan fill="url(#paint2_linear)" font-style="italic">X</tspan>
  </text>
  
  <text x="545" y="235" style="font-family: 'Segoe UI', sans-serif; font-weight: 700; font-size: 14px; letter-spacing: 8px; text-transform: uppercase;" fill="#475569">
    Premium Digital Storefront
  </text>

  <defs>
    <radialGradient id="paint0_radial" cx="0" cy="0" r="1" gradientUnits="userSpaceOnUse" gradientTransform="translate(1000 100) rotate(90) scale(150)">
      <stop stop-color="#ec4899"/>
      <stop offset="1" stop-color="#ec4899" stop-opacity="0"/>
    </radialGradient>
    <radialGradient id="paint1_radial" cx="0" cy="0" r="1" gradientUnits="userSpaceOnUse" gradientTransform="translate(200 300) rotate(90) scale(200)">
      <stop stop-color="#6366f1"/>
      <stop offset="1" stop-color="#6366f1" stop-opacity="0"/>
    </radialGradient>
    <linearGradient id="paint2_linear" x1="420" y1="140" x2="520" y2="240" gradientUnits="userSpaceOnUse">
      <stop stop-color="#6366f1"/>
      <stop offset="1" stop-color="#ec4899"/>
    </linearGradient>
  </defs>
</svg>
